<?xml version="1.0" standalone="no"?>
<!DOCTYPE svg PUBLIC "-//W3C//DTD SVG 20010904//EN"
 "http://www.w3.org/TR/2001/REC-SVG-20010904/DTD/svg10.dtd">
<svg version="1.0" xmlns="http://www.w3.org/2000/svg"
 width="700.000000pt" height="700.000000pt" viewBox="0 0 700.000000 700.000000"
 preserveAspectRatio="xMidYMid meet">
<metadata>
Created by potrace 1.11, written by Peter Selinger 2001-2013
</metadata>
<g transform="translate(0.000000,700.000000) scale(0.100000,-0.100000)"
fill="#000000" stroke="none">
<path d="M3774 6576 c-36 -16 -89 -77 -214 -246 -265 -360 -466 -711 -590
-1032 l-53 -138 -55 103 c-111 209 -307 483 -365 510 -71 34 -155 15 -201 -45
-37 -49 -41 -84 -21 -190 40 -209 18 -453 -60 -678 -68 -195 -146 -341 -401
-752 -239 -386 -349 -588 -439 -807 -170 -415 -214 -849 -130 -1267 129 -637
554 -1157 1200 -1469 149 -71 375 -155 420 -155 75 0 146 61 161 139 9 42 -19
114 -56 145 -16 13 -59 34 -95 46 -244 81 -405 409 -405 826 0 350 123 668
386 995 97 121 148 177 139 154 -25 -64 -69 -226 -87 -325 -30 -154 -32 -481
-5 -641 23 -138 66 -301 112 -425 40 -105 108 -249 124 -258 19 -12 235 244
347 412 74 110 178 316 224 442 59 161 122 449 137 628 3 40 9 75 13 77 7 4
42 -121 79 -285 87 -386 85 -725 -6 -1013 -13 -43 -23 -80 -21 -82 2 -2 69 29
149 68 228 113 367 215 465 340 l54 69 0 -35 c0 -19 -7 -74 -15 -123 -70 -398
-313 -682 -685 -800 -111 -35 -144 -56 -169 -108 -27 -55 -26 -93 2 -146 25
-48 89 -90 137 -90 32 0 209 55 370 115 714 266 1182 638 1410 1118 95 200
142 384 162 634 30 380 -55 822 -264 1378 -56 149 -118 294 -343 810 -181 415
-225 556 -229 732 -2 93 -4 104 -30 137 -35 47 -74 66 -131 66 -90 0 -124 -32
-194 -188 -128 -282 -189 -478 -214 -692 l-12 -103 -62 109 c-381 676 -500
1285 -343 1763 16 51 30 112 30 135 0 47 -27 96 -72 129 -34 25 -113 32 -154
13z m-178 -1006 c70 -544 364 -1178 849 -1828 59 -79 121 -152 138 -163 45
-27 124 -26 167 3 87 60 96 112 45 269 -94 290 -114 540 -62 769 l13 55 23
-60 c13 -33 89 -208 169 -390 334 -764 427 -1032 506 -1465 4 -20 -22 22 -63
105 -73 147 -193 336 -328 517 l-80 108 -12 -55 c-44 -198 -288 -262 -523
-138 -40 21 -95 61 -123 89 -95 95 -383 511 -534 769 -81 138 -226 425 -271
538 -13 31 -27 54 -31 50 -20 -22 -55 -265 -65 -458 -10 -198 -46 -287 -158
-393 -197 -186 -503 -174 -689 28 l-61 67 -81 -129 c-44 -70 -161 -230 -261
-355 -378 -477 -526 -702 -611 -933 l-24 -65 7 85 c18 250 79 462 213 745 74
156 159 304 346 605 204 330 263 431 339 590 71 150 128 307 155 432 l18 83
31 -83 c62 -160 104 -377 118 -617 8 -147 16 -176 63 -218 54 -48 113 -58 175
-27 75 36 89 69 98 234 27 475 164 903 439 1367 l44 74 3 -40 c1 -22 9 -96 18
-165z"/>
</g>
</svg>
